<svg width="292" height="16" viewBox="0 0 292 16" fill="none" xmlns="http://www.w3.org/2000/svg">
    <path
        d="M6.05005 14C4.28338 14 2.84172 13.4417 1.72505 12.325C0.608382 11.2083 0.0500488 9.76667 0.0500488 8C0.0500488 6.23333 0.608382 4.79167 1.72505 3.675C2.84172 2.55833 4.28338 2 6.05005 2H33.9501C35.7167 2 37.1584 2.55833 38.2751 3.675C39.3917 4.79167 39.9501 6.23333 39.9501 8C39.9501 9.76667 39.3917 11.2083 38.2751 12.325C37.1584 13.4417 35.7167 14 33.9501 14H6.05005ZM24.3 11H34.1501C35.0167 11 35.7334 10.7167 36.3 10.15C36.8667 9.58333 37.1501 8.86667 37.1501 8C37.1501 6.86667 36.8667 6.08333 36.3 5.65C35.7334 5.21667 35.0167 5 34.1501 5H24.3V11Z"
        fill="#323233" />
    <circle cx="248" cy="8" r="7" stroke="#323233" stroke-width="2" />
    <path
        d="M266 15C270.05 15 273.462 11.9345 273.462 8C273.462 4.06551 270.05 1 266 1C261.95 1 258.539 4.06551 258.539 8C258.539 11.9345 261.95 15 266 15Z"
        stroke="#323233" stroke-width="2" />
    <circle cx="284" cy="8" r="7" stroke="#323233" stroke-width="2" />
</svg>